<?xml version="1.0" encoding="UTF-8" standalone="no"?>
<svg
        xmlns="http://www.w3.org/2000/svg"
        width="14"
        height="24"
        fill="none"
        version="1.1"
        viewBox="0 0 14 24"
        xmlSpace="preserve"
>
    <path
            fill="#cbd5dc"
            fillRule="evenodd"
            d="M7.11 0a1 1 0 011 1v22a1 1 0 11-2 0V1a1 1 0 011-1z"
            clipRule="evenodd"
    />
    <g fill="none" transform="translate(0 4.022)">
        <path
                fill="#cbd5dc"
                fillRule="evenodd"
                d="M1.318 1.318A4.5 4.5 0 014.5 0H12a1 1 0 110 2H4.5a2.5 2.5 0 100 5h5a4.5 4.5 0 110 9H1a1 1 0 110-2h8.5a2.5 2.5 0 000-5h-5a4.5 4.5 0 01-3.182-7.682z"
                clipRule="evenodd"
        />
    </g>
</svg>
