<?xml version="1.0" encoding="UTF-8" standalone="no"?>
<svg
        xmlns="http://www.w3.org/2000/svg"
        width="20"
        height="22"
        fill="none"
        version="1.1"
        viewBox="0 0 20 22"
        xmlSpace="preserve"
>
    <path
            fill="#8a9ca9"
            fillRule="evenodd"
            d="M10 2a4 4 0 00-4 4v4a1 1 0 11-2 0V6a6 6 0 0112 0v4a1 1 0 11-2 0V6a4 4 0 00-4-4z"
            clipRule="evenodd"
    />
    <g fill="none" transform="translate(0 9.01)">
        <path
                fill="#8a9ca9"
                fillRule="evenodd"
                d="M3 2a1 1 0 00-1 1v7a1 1 0 001 1h14a1 1 0 001-1V3a1 1 0 00-1-1zM0 3a3 3 0 013-3h14a3 3 0 013 3v7a3 3 0 01-3 3H3a3 3 0 01-3-3z"
                clipRule="evenodd"
        />
    </g>
</svg>