<?xml version="1.0" encoding="UTF-8" standalone="no"?>
<svg
        xmlns="http://www.w3.org/2000/svg"
        width="64"
        height="64"
        fill="none"
        version="1.1"
        viewBox="0 0 64 64"
        xmlSpace="preserve"
>
    <path
            fill="#1C1E1F"
            d="M64 32C64 14.327 49.673 0 32 0 14.327 0 0 14.327 0 32c0 17.673 14.327 32 32 32 17.673 0 32-14.327 32-32z"
    />
    <g fill="none" transform="translate(18 12)">
        <path
                fill="#fff"
                fillRule="evenodd"
                d="M.4 34.916l3.98-3.883c4.792 4.616 12.532 4.616 17.286 0l3.98 3.883c-6.929 6.778-18.28 6.778-25.246 0zM22.735 9.673c1.474 1.868 2.359 4.286 2.359 7.144 0 7.254-5.75 11.688-12.09 11.688-6.412 0-11.94-4.434-11.94-11.578 0-.696.036-1.356.147-2.052a12.393 12.393 0 011.216-3.627 10.425 10.425 0 012.248-2.821 11.735 11.735 0 012.986-1.979 12.902 12.902 0 013.501-1.062c1.474-.22 3.096-.147 4.68-.147.664 0 1.254.037 1.917-.073a4.453 4.453 0 002.543-1.282C21.334 2.858 21.85 1.429 21.85 0h5.75c0 4.067-1.953 7.657-4.865 9.673zm-3.833 7.217c0-3.554-2.175-6.338-5.75-6.338s-5.97 2.784-5.97 6.338c0 3.554 2.395 6.339 5.97 6.339 3.575 0 5.75-2.785 5.75-6.339z"
                clipRule="evenodd"
        />
    </g>
</svg>
